<?xml version="1.0" encoding="UTF-8" standalone="no"?>
<!DOCTYPE svg PUBLIC "-//W3C//DTD SVG 1.1//EN" "http://www.w3.org/Graphics/SVG/1.1/DTD/svg11.dtd">
<!-- Created with Vectornator (http://vectornator.io/) -->
<svg height="100%" stroke-miterlimit="10" style="fill-rule:nonzero;clip-rule:evenodd;stroke-linecap:round;stroke-linejoin:round;" version="1.1" viewBox="0 0 176 54" width="100%" xml:space="preserve" xmlns="http://www.w3.org/2000/svg" xmlns:xlink="http://www.w3.org/1999/xlink">
<defs>
<clipPath id="TextBounds">
<rect height="56.3053" width="177.195" x="0.903" y="0"/>
</clipPath>
</defs>
<g id="Untitled">
<g fill="#f2f2f2" opacity="1" stroke="none">
<path clip-path="url(#TextBounds)" d="M12.573 24.875L12.573 17.36L19.188 17.36C19.818 17.36 20.4255 17.4125 21.0105 17.5175C21.5955 17.6225 22.113 17.81 22.563 18.08C23.013 18.35 23.373 18.725 23.643 19.205C23.913 19.685 24.048 20.3 24.048 21.05C24.048 22.4 23.643 23.375 22.833 23.975C22.023 24.575 20.988 24.875 19.728 24.875L12.573 24.875ZM5.508 11.87L5.508 44L21.078 44C22.518 44 23.9205 43.82 25.2855 43.46C26.6505 43.1 27.8655 42.545 28.9305 41.795C29.9955 41.045 30.843 40.0775 31.473 38.8925C32.103 37.7075 32.418 36.305 32.418 34.685C32.418 32.675 31.9305 30.9575 30.9555 29.5325C29.9805 28.1075 28.503 27.11 26.523 26.54C27.963 25.85 29.0505 24.965 29.7855 23.885C30.5205 22.805 30.888 21.455 30.888 19.835C30.888 18.335 30.6405 17.075 30.1455 16.055C29.6505 15.035 28.953 14.2175 28.053 13.6025C27.153 12.9875 26.073 12.545 24.813 12.275C23.553 12.005 22.158 11.87 20.628 11.87L5.508 11.87ZM12.573 38.51L12.573 29.69L20.268 29.69C21.798 29.69 23.028 30.0425 23.958 30.7475C24.888 31.4525 25.353 32.63 25.353 34.28C25.353 35.12 25.2105 35.81 24.9255 36.35C24.6405 36.89 24.258 37.3175 23.778 37.6325C23.298 37.9475 22.743 38.1725 22.113 38.3075C21.483 38.4425 20.823 38.51 20.133 38.51L12.573 38.51Z"/>
<path clip-path="url(#TextBounds)" d="M52.173 29.87L41.778 29.87C41.808 29.42 41.9055 28.91 42.0705 28.34C42.2355 27.77 42.5205 27.23 42.9255 26.72C43.3305 26.21 43.8705 25.7825 44.5455 25.4375C45.2205 25.0925 46.068 24.92 47.088 24.92C48.648 24.92 49.8105 25.34 50.5755 26.18C51.3405 27.02 51.873 28.25 52.173 29.87ZM41.778 33.92L58.563 33.92C58.683 32.12 58.533 30.395 58.113 28.745C57.693 27.095 57.0105 25.625 56.0655 24.335C55.1205 23.045 53.913 22.0175 52.443 21.2525C50.973 20.4875 49.248 20.105 47.268 20.105C45.498 20.105 43.8855 20.42 42.4305 21.05C40.9755 21.68 39.723 22.5425 38.673 23.6375C37.623 24.7325 36.813 26.03 36.243 27.53C35.673 29.03 35.388 30.65 35.388 32.39C35.388 34.19 35.6655 35.84 36.2205 37.34C36.7755 38.84 37.563 40.13 38.583 41.21C39.603 42.29 40.848 43.1225 42.318 43.7075C43.788 44.2925 45.438 44.585 47.268 44.585C49.908 44.585 52.158 43.985 54.018 42.785C55.878 41.585 57.258 39.59 58.158 36.8L52.533 36.8C52.323 37.52 51.753 38.2025 50.823 38.8475C49.893 39.4925 48.783 39.815 47.493 39.815C45.693 39.815 44.313 39.35 43.353 38.42C42.393 37.49 41.868 35.99 41.778 33.92Z"/>
<path clip-path="url(#TextBounds)" d="M63.018 11.87L63.018 44L70.083 44L70.083 30.725L83.538 30.725L83.538 25.235L70.083 25.235L70.083 17.81L85.608 17.81L85.608 11.87L63.018 11.87Z"/>
<path clip-path="url(#TextBounds)" d="M88.758 27.89C88.848 26.39 89.223 25.145 89.883 24.155C90.543 23.165 91.383 22.37 92.403 21.77C93.423 21.17 94.5705 20.7425 95.8455 20.4875C97.1205 20.2325 98.403 20.105 99.693 20.105C100.863 20.105 102.048 20.1875 103.248 20.3525C104.448 20.5175 105.543 20.84 106.533 21.32C107.523 21.8 108.333 22.4675 108.963 23.3225C109.593 24.1775 109.908 25.31 109.908 26.72L109.908 38.825C109.908 39.875 109.968 40.88 110.088 41.84C110.208 42.8 110.418 43.52 110.718 44L104.238 44C104.118 43.64 104.02 43.2725 103.945 42.8975C103.87 42.5225 103.818 42.14 103.788 41.75C102.768 42.8 101.568 43.535 100.188 43.955C98.808 44.375 97.398 44.585 95.958 44.585C94.848 44.585 93.813 44.45 92.853 44.18C91.893 43.91 91.053 43.49 90.333 42.92C89.613 42.35 89.0505 41.63 88.6455 40.76C88.2405 39.89 88.038 38.855 88.038 37.655C88.038 36.335 88.2705 35.2475 88.7355 34.3925C89.2005 33.5375 89.8005 32.855 90.5355 32.345C91.2705 31.835 92.1105 31.4525 93.0555 31.1975C94.0005 30.9425 94.953 30.74 95.913 30.59C96.873 30.44 97.818 30.32 98.748 30.23C99.678 30.14 100.503 30.005 101.223 29.825C101.943 29.645 102.513 29.3825 102.933 29.0375C103.353 28.6925 103.548 28.19 103.518 27.53C103.518 26.84 103.405 26.2925 103.18 25.8875C102.955 25.4825 102.655 25.1675 102.28 24.9425C101.905 24.7175 101.47 24.5675 100.975 24.4925C100.48 24.4175 99.948 24.38 99.378 24.38C98.118 24.38 97.128 24.65 96.408 25.19C95.688 25.73 95.268 26.63 95.148 27.89L88.758 27.89ZM103.518 32.615C103.248 32.855 102.91 33.0425 102.505 33.1775C102.1 33.3125 101.665 33.425 101.2 33.515C100.735 33.605 100.248 33.68 99.738 33.74C99.228 33.8 98.718 33.875 98.208 33.965C97.728 34.055 97.2555 34.175 96.7905 34.325C96.3255 34.475 95.9205 34.6775 95.5755 34.9325C95.2305 35.1875 94.953 35.51 94.743 35.9C94.533 36.29 94.428 36.785 94.428 37.385C94.428 37.955 94.533 38.435 94.743 38.825C94.953 39.215 95.238 39.5225 95.598 39.7475C95.958 39.9725 96.378 40.13 96.858 40.22C97.338 40.31 97.833 40.355 98.343 40.355C99.603 40.355 100.578 40.145 101.268 39.725C101.958 39.305 102.468 38.8025 102.798 38.2175C103.128 37.6325 103.33 37.04 103.405 36.44C103.48 35.84 103.518 35.36 103.518 35L103.518 32.615Z"/>
<path clip-path="url(#TextBounds)" d="M115.443 11.87L115.443 44L121.833 44L121.833 35.99L124.308 33.605L130.698 44L138.438 44L128.673 29.285L137.448 20.735L129.888 20.735L121.833 29.105L121.833 11.87L115.443 11.87Z"/>
<path clip-path="url(#TextBounds)" d="M156.348 29.87L145.953 29.87C145.983 29.42 146.08 28.91 146.245 28.34C146.41 27.77 146.695 27.23 147.1 26.72C147.505 26.21 148.045 25.7825 148.72 25.4375C149.395 25.0925 150.243 24.92 151.263 24.92C152.823 24.92 153.985 25.34 154.75 26.18C155.515 27.02 156.048 28.25 156.348 29.87ZM145.953 33.92L162.738 33.92C162.858 32.12 162.708 30.395 162.288 28.745C161.868 27.095 161.185 25.625 160.24 24.335C159.295 23.045 158.088 22.0175 156.618 21.2525C155.148 20.4875 153.423 20.105 151.443 20.105C149.673 20.105 148.06 20.42 146.605 21.05C145.15 21.68 143.898 22.5425 142.848 23.6375C141.798 24.7325 140.988 26.03 140.418 27.53C139.848 29.03 139.563 30.65 139.563 32.39C139.563 34.19 139.84 35.84 140.395 37.34C140.95 38.84 141.738 40.13 142.758 41.21C143.778 42.29 145.023 43.1225 146.493 43.7075C147.963 44.2925 149.613 44.585 151.443 44.585C154.083 44.585 156.333 43.985 158.193 42.785C160.053 41.585 161.433 39.59 162.333 36.8L156.708 36.8C156.498 37.52 155.928 38.2025 154.998 38.8475C154.068 39.4925 152.958 39.815 151.668 39.815C149.868 39.815 148.488 39.35 147.528 38.42C146.568 37.49 146.043 35.99 145.953 33.92Z"/>
<path clip-path="url(#TextBounds)" d="M166.788 37.07L166.788 44L173.853 44L173.853 37.07L166.788 37.07Z"/>
</g>
</g>
</svg>
